<svg xmlns="http://www.w3.org/2000/svg">
	<defs>
		<style>
		.img { display: none }
		.img:target { display: inline }
		</style>
	</defs>

  <svg viewBox="0 0 16 16" fill="none" xmlns="http://www.w3.org/2000/svg">
    <g id="mappin" class="img">
      <path d="M8 8.5C9.10457 8.5 10 7.60457 10 6.5C10 5.39543 9.10457 4.5 8 4.5C6.89543 4.5 6 5.39543 6 6.5C6 7.60457 6.89543 8.5 8 8.5Z" stroke="#181A34" stroke-linecap="round" stroke-linejoin="round"/>
      <path d="M13 6.5C13 11 8 14.5 8 14.5C8 14.5 3 11 3 6.5C3 5.17392 3.52678 3.90215 4.46447 2.96447C5.40215 2.02678 6.67392 1.5 8 1.5C9.32608 1.5 10.5979 2.02678 11.5355 2.96447C12.4732 3.90215 13 5.17392 13 6.5V6.5Z" stroke="#181A34" stroke-linecap="round" stroke-linejoin="round"/>
    </g>
  </svg>

  <svg viewBox="0 0 10 10" fill="none" xmlns="http://www.w3.org/2000/svg">
    <g id="caretdown" class="img">
      <path d="M8.125 3.75L5 6.875L1.875 3.75" stroke="#181A34" stroke-linecap="round" stroke-linejoin="round"/>
    </g>
  </svg>

  <svg viewBox="0 0 189 48" fill="none" xmlns="http://www.w3.org/2000/svg">
    <g id="logo" class="img">
      <ellipse cx="25.088" cy="24" rx="23.9474" ry="24" fill="#F6F6F9"/>
      <path d="M70.7145 29.7143H62.8917V31.4743H60.6406V27.6983H62.3329L66.8031 17.9543L71.2733 27.6983H72.9655V31.4743H70.7145V29.7143ZM66.8031 22.2903L64.8075 27.6983H68.7987L66.8031 22.2903Z" fill="#181A34"/>
      <path d="M74.8728 18.5143H81.9932V20.4663H77.1079V22.8183H81.6739V24.7223H77.1079V27.7623H81.9932V29.7143H74.8728V18.5143Z" fill="#181A34"/>
      <path d="M83.1253 20.5943V18.5143H91.4431V20.5943H88.4257V29.7143H86.1267V20.5943H83.1253Z" fill="#181A34"/>
      <path d="M93.7966 24.1143C93.7966 24.8503 93.9616 25.4903 94.2915 26.0343C94.6215 26.5783 95.0579 26.9996 95.6007 27.2983C96.1435 27.5863 96.7342 27.7303 97.3728 27.7303C98.1604 27.7303 98.8309 27.581 99.3844 27.2823C99.9484 26.9836 100.417 26.621 100.789 26.1943V28.7863C100.332 29.149 99.8367 29.4316 99.3045 29.6343C98.7724 29.837 98.0965 29.9383 97.277 29.9383C96.4149 29.9383 95.6166 29.7996 94.8822 29.5223C94.1585 29.2343 93.5306 28.8343 92.9984 28.3223C92.4662 27.8103 92.0511 27.197 91.7531 26.4823C91.4551 25.7676 91.3061 24.9783 91.3061 24.1143C91.3061 23.2503 91.4551 22.461 91.7531 21.7463C92.0511 21.0316 92.4662 20.4183 92.9984 19.9063C93.5306 19.3943 94.1585 18.9996 94.8822 18.7223C95.6166 18.4343 96.4149 18.2903 97.277 18.2903C98.0965 18.2903 98.7724 18.3916 99.3045 18.5943C99.8367 18.7863 100.332 19.069 100.789 19.4423V22.0343C100.417 21.597 99.9484 21.2343 99.3844 20.9463C98.8309 20.6476 98.1604 20.4983 97.3728 20.4983C96.7342 20.4983 96.1435 20.6476 95.6007 20.9463C95.0579 21.2343 94.6215 21.6503 94.2915 22.1943C93.9616 22.7276 93.7966 23.3676 93.7966 24.1143Z" fill="#181A34"/>
      <path d="M103.045 18.5143H105.408V23.0583L109.383 18.5143H112.113L107.484 23.7623L112.337 29.7143H109.559L105.408 24.6423V29.7143H103.045V18.5143Z" fill="#181A34"/>
      <path d="M121.12 29.7143L119.955 27.1863H116.123L114.974 29.7143H112.372L118.039 17.8423L123.723 29.7143H121.12ZM118.039 22.1623L116.666 25.3623H119.412L118.039 22.1623Z" fill="#181A34"/>
      <path d="M132.438 18.5143V29.7143H130.139V25.6503H129.149L126.531 29.7143H123.817L126.85 25.3783C126.084 25.1223 125.499 24.7116 125.094 24.1463C124.69 23.5703 124.488 22.8876 124.488 22.0983C124.488 21.3836 124.653 20.7596 124.983 20.2263C125.313 19.693 125.786 19.277 126.403 18.9783C127.031 18.669 127.787 18.5143 128.67 18.5143H132.438ZM128.798 23.8263H130.139V20.4983H128.798C128.213 20.4983 127.739 20.6423 127.377 20.9303C127.026 21.2183 126.85 21.629 126.85 22.1623C126.85 22.685 127.026 23.0956 127.377 23.3943C127.739 23.6823 128.213 23.8263 128.798 23.8263Z" fill="#181A34"/>
      <path d="M146.837 20.5943H142.016V29.7143H139.685V18.5143H149.168V29.7143H146.837V20.5943Z" fill="#181A34"/>
      <path d="M159.209 29.7143L158.043 27.1863H154.212L153.062 29.7143H150.46L156.127 17.8423L161.811 29.7143H159.209ZM156.127 22.1623L154.754 25.3623H157.5L156.127 22.1623Z" fill="#181A34"/>
      <path d="M163.023 18.5143H166.647C167.977 18.5143 169.004 18.8343 169.728 19.4743C170.452 20.1143 170.814 20.989 170.814 22.0983C170.814 23.197 170.452 24.0663 169.728 24.7063C169.004 25.3356 167.977 25.6503 166.647 25.6503H165.322V29.7143H163.023V18.5143ZM166.647 20.4663H165.322V23.6983H166.647C167.243 23.6983 167.717 23.565 168.068 23.2983C168.419 23.021 168.595 22.621 168.595 22.0983C168.595 21.565 168.419 21.1596 168.068 20.8823C167.717 20.605 167.243 20.4663 166.647 20.4663Z" fill="#181A34"/>
      <path d="M170.995 20.5943V18.5143H179.312V20.5943H176.295V29.7143H173.996V20.5943H170.995Z" fill="#181A34"/>
      <path d="M186.57 29.7143L185.405 27.1863H181.573L180.424 29.7143H177.822L183.489 17.8423L189.173 29.7143H186.57ZM183.489 22.1623L182.116 25.3623H184.862L183.489 22.1623Z" fill="#181A34"/>
      <path d="M38.2031 12.5714L46.1856 41.1428" stroke="#2CCC59" stroke-width="2"/>
      <path d="M18.2461 12.5714H49.6057" stroke="#2CCC59" stroke-width="2"/>
      <path d="M18.5859 12.5372L42.1914 6.28577" stroke="#2CCC59" stroke-width="2"/>
      <path d="M23.9492 41.1428H52.458" stroke="#2CCC59" stroke-width="2"/>
      <path d="M41.4884 40.1728C41.273 39.5254 41.755 38.8572 42.4372 38.8572H48.312C48.7427 38.8572 49.1249 39.1329 49.2609 39.5416L49.736 40.9701C49.9513 41.6176 49.4694 42.2857 48.7871 42.2857H42.9124C42.4817 42.2857 42.0994 42.01 41.9635 41.6014L41.4884 40.1728Z" fill="#2CCC59"/>
      <path d="M3.44302 8.2249L7.31506 24.0394H23.0047C24.2425 24.0394 25.2461 25.0452 25.2461 26.2857V27.7833H4.32655L0.531483 8.84425C0.447212 8.40698 0.562126 7.95509 0.844852 7.61141C1.12758 7.2681 1.54857 7.06921 1.9929 7.06885C2.68604 7.06848 3.28761 7.54816 3.44302 8.2249Z" fill="#181A34"/>
      <path d="M12.1094 27.1543L13.1127 40" stroke="#181A34" stroke-width="1.5"/>
      <path d="M13.1161 39.4286L8.55469 44" stroke="#181A34"/>
      <path d="M13.1126 39.9999L10.2617 37.7142" stroke="#181A34"/>
      <path d="M12.5441 40L17.1055 37.1428" stroke="#181A34"/>
      <path d="M12.543 39.4286L18.2447 41.7143" stroke="#181A34"/>
      <path d="M9.98026 38.3357C10.4803 38.3357 10.8855 37.9295 10.8855 37.4286C10.8855 36.9277 10.4803 36.5214 9.98026 36.5214C9.4802 36.5214 9.075 36.9277 9.075 37.4286C9.075 37.9295 9.4802 38.3357 9.98026 38.3357Z" fill="#181A34" stroke="#F5F5F9" stroke-width="0.1"/>
      <path d="M16.8205 38.3357C16.3205 38.3357 15.9153 37.9295 15.9153 37.4286C15.9153 36.9277 16.3205 36.5214 16.8205 36.5214C17.3206 36.5214 17.7258 36.9277 17.7258 37.4286C17.7258 37.9295 17.3206 38.3357 16.8205 38.3357Z" fill="#181A34" stroke="#F5F5F9" stroke-width="0.1"/>
      <path d="M18.2458 42.9071C18.9033 42.9071 19.4362 42.373 19.4362 41.7143C19.4362 41.0556 18.9033 40.5214 18.2458 40.5214C17.5883 40.5214 17.0555 41.0556 17.0555 41.7143C17.0555 42.373 17.5883 42.9071 18.2458 42.9071Z" fill="#181A34" stroke="#F5F5F9" stroke-width="0.1"/>
      <path d="M8.55441 45.1929C9.21193 45.1929 9.74477 44.6587 9.74477 44C9.74477 43.3413 9.21193 42.8072 8.55441 42.8072C7.8969 42.8072 7.36406 43.3413 7.36406 44C7.36406 44.6587 7.8969 45.1929 8.55441 45.1929Z" fill="#181A34" stroke="white" stroke-width="0.1"/>
    </g>
  </svg>

  <svg viewBox="0 0 20 20" fill="none" xmlns="http://www.w3.org/2000/svg">
    <g id="search" class="img">
      <path d="M9.0625 15.625C12.6869 15.625 15.625 12.6869 15.625 9.0625C15.625 5.43813 12.6869 2.5 9.0625 2.5C5.43813 2.5 2.5 5.43813 2.5 9.0625C2.5 12.6869 5.43813 15.625 9.0625 15.625Z" stroke="#2CCC59" stroke-width="1.5" stroke-linecap="round" stroke-linejoin="round"/>
      <path d="M13.7031 13.7031L17.5 17.5" stroke="#2CCC59" stroke-width="1.5" stroke-linecap="round" stroke-linejoin="round"/>
    </g>
  </svg>

  <svg viewBox="0 0 20 22" fill="none" xmlns="http://www.w3.org/2000/svg">
    <g id="clock" class="img">
      <path d="M9.99935 19.25C14.6017 19.25 18.3327 15.5563 18.3327 11C18.3327 6.44365 14.6017 2.75 9.99935 2.75C5.39698 2.75 1.66602 6.44365 1.66602 11C1.66602 15.5563 5.39698 19.25 9.99935 19.25Z" stroke="#181A34" stroke-linecap="round" stroke-linejoin="round"/>
      <path d="M10 6.1875V11H14.8611" stroke="#181A34" stroke-linecap="round" stroke-linejoin="round"/>
    </g>
  </svg>

  <svg viewBox="0 0 20 20" fill="none" xmlns="http://www.w3.org/2000/svg">
    <g id="chat" class="img">
      <path d="M3.54912 13.828C2.6173 12.2572 2.29097 10.4002 2.6314 8.60583C2.97184 6.81142 3.95563 5.203 5.39803 4.08261C6.84044 2.96222 8.64224 2.40692 10.4651 2.52099C12.2879 2.63506 14.0065 3.41065 15.2979 4.70212C16.5894 5.99359 17.365 7.71211 17.4791 9.53496C17.5932 11.3578 17.0379 13.1596 15.9175 14.602C14.7971 16.0444 13.1887 17.0282 11.3943 17.3687C9.59988 17.7091 7.74291 17.3828 6.17207 16.451L6.17209 16.4509L3.58173 17.191C3.47456 17.2216 3.36115 17.223 3.25325 17.1951C3.14536 17.1671 3.0469 17.1108 2.96809 17.032C2.88927 16.9532 2.83297 16.8547 2.80501 16.7468C2.77705 16.6389 2.77846 16.5255 2.80908 16.4184L3.54918 13.828L3.54912 13.828Z" stroke="#0066FF" stroke-linecap="round" stroke-linejoin="round"/>
      <path d="M6.25 10.9407C6.76777 10.9407 7.1875 10.5209 7.1875 10.0032C7.1875 9.48541 6.76777 9.06567 6.25 9.06567C5.73223 9.06567 5.3125 9.48541 5.3125 10.0032C5.3125 10.5209 5.73223 10.9407 6.25 10.9407Z" fill="#0066FF"/>
      <path d="M10 10.9407C10.5178 10.9407 10.9375 10.5209 10.9375 10.0032C10.9375 9.48541 10.5178 9.06567 10 9.06567C9.48223 9.06567 9.0625 9.48541 9.0625 10.0032C9.0625 10.5209 9.48223 10.9407 10 10.9407Z" fill="#0066FF"/>
      <path d="M13.75 10.9407C14.2678 10.9407 14.6875 10.5209 14.6875 10.0032C14.6875 9.48541 14.2678 9.06567 13.75 9.06567C13.2322 9.06567 12.8125 9.48541 12.8125 10.0032C12.8125 10.5209 13.2322 10.9407 13.75 10.9407Z" fill="#0066FF"/>
    </g>
  </svg>

  <svg viewBox="0 0 16 16" fill="none" xmlns="http://www.w3.org/2000/svg">
    <g id="star-gold" class="img">
      <path d="M15.977 6.16432C15.9219 5.9946 15.7752 5.87091 15.5987 5.84529L10.6386 5.12451L8.42034 0.629933C8.3414 0.469933 8.17843 0.368652 8.00003 0.368652C7.82159 0.368652 7.65865 0.469933 7.57968 0.629933L5.36132 5.12451L0.401338 5.84529C0.224808 5.87091 0.0780893 5.9946 0.0229645 6.16429C-0.0321915 6.334 0.0138083 6.52028 0.141589 6.64481L3.73057 10.1434L2.88345 15.0834C2.85327 15.2593 2.92558 15.437 3.06992 15.5419C3.15158 15.6012 3.2483 15.6314 3.34548 15.6314C3.42011 15.6314 3.49498 15.6136 3.56354 15.5776L8 13.2451L12.4363 15.5775C12.5942 15.6606 12.7856 15.6467 12.9299 15.5419C13.0743 15.437 13.1466 15.2593 13.1164 15.0834L12.269 10.1434L15.8584 6.64478C15.9862 6.52028 16.0322 6.334 15.977 6.16432Z" fill="#EAC02C"/>
    </g>
  </svg>

  <svg viewBox="0 0 24 24" fill="none" xmlns="http://www.w3.org/2000/svg">
    <g id="instagram" class="img">
      <path d="M12 15.75C14.0711 15.75 15.75 14.0711 15.75 12C15.75 9.92893 14.0711 8.25 12 8.25C9.92893 8.25 8.25 9.92893 8.25 12C8.25 14.0711 9.92893 15.75 12 15.75Z" stroke="#525E6A" stroke-width="1.5" stroke-miterlimit="10"/>
      <path d="M16.125 3.375H7.875C5.38972 3.375 3.375 5.38972 3.375 7.875V16.125C3.375 18.6103 5.38972 20.625 7.875 20.625H16.125C18.6103 20.625 20.625 18.6103 20.625 16.125V7.875C20.625 5.38972 18.6103 3.375 16.125 3.375Z" stroke="#525E6A" stroke-width="1.5" stroke-linecap="round" stroke-linejoin="round"/>
      <path d="M16.875 8.25C17.4963 8.25 18 7.74632 18 7.125C18 6.50368 17.4963 6 16.875 6C16.2537 6 15.75 6.50368 15.75 7.125C15.75 7.74632 16.2537 8.25 16.875 8.25Z" fill="#525E6A"/>
    </g>
  </svg>

  <svg viewBox="0 0 24 24" fill="none" xmlns="http://www.w3.org/2000/svg">
    <g id="twitter" class="img">
      <path d="M22.5006 5.68677C21.6841 6.85569 20.6655 7.86941 19.4926 8.68017L19.4926 8.68016C19.4183 10.7306 18.8198 12.7277 17.7541 14.481C16.6884 16.2342 15.1911 17.6851 13.4052 18.695C11.6192 19.7049 9.60418 20.2402 7.55247 20.2497C5.50076 20.2593 3.48084 19.7428 1.68555 18.7495L1.68616 18.7484C4.03051 18.716 6.31343 17.9941 8.25024 16.6728L8.25016 16.6729C6.17689 15.2598 4.59782 13.2333 3.73433 10.8775C2.87084 8.52177 2.76623 5.95484 3.43517 3.53662L3.43513 3.53664C4.39323 5.01214 5.66407 6.25889 7.15762 7.18858C8.65117 8.11827 10.3309 8.70816 12.0778 8.91644L12.0775 8.91649C11.8936 8.03956 12.0296 7.12575 12.461 6.34043C12.8924 5.55511 13.5907 4.95018 14.4295 4.6351C15.2683 4.32003 16.1922 4.31564 17.034 4.62273C17.8757 4.92982 18.5797 5.52809 19.0186 6.30927L19.0186 6.30969C20.2036 6.27433 21.3769 6.06443 22.5006 5.68677" stroke="#525E6A" stroke-width="1.5" stroke-linecap="round" stroke-linejoin="round"/>
    </g>
  </svg>

  <svg viewBox="0 0 24 24" fill="none" xmlns="http://www.w3.org/2000/svg">
    <g id="facebook" class="img">
      <path d="M12 21C16.9706 21 21 16.9706 21 12C21 7.02944 16.9706 3 12 3C7.02944 3 3 7.02944 3 12C3 16.9706 7.02944 21 12 21Z" stroke="#525E6A" stroke-width="1.5" stroke-linecap="round" stroke-linejoin="round"/>
      <path d="M15.75 8.25H14.25C13.6533 8.25 13.081 8.48705 12.659 8.90901C12.2371 9.33097 12 9.90326 12 10.5V21" stroke="#525E6A" stroke-width="1.5" stroke-linecap="round" stroke-linejoin="round"/>
      <path d="M9 13.5H15" stroke="#525E6A" stroke-width="1.5" stroke-linecap="round" stroke-linejoin="round"/>
    </g>
  </svg>

  <svg viewBox="0 0 32 26" fill="none" xmlns="http://www.w3.org/2000/svg">
    <g id="mastercard" class="img">
      <path d="M5.82428 25.8563V24.1346C5.83321 23.9997 5.81642 23.8643 5.77487 23.7363C5.73333 23.6082 5.66786 23.49 5.58227 23.3886C5.49667 23.2872 5.39265 23.2045 5.27624 23.1454C5.15982 23.0863 5.03333 23.0519 4.9041 23.0442H4.7805C4.59895 23.0318 4.41754 23.0705 4.25519 23.1563C4.09285 23.2421 3.95554 23.3719 3.85758 23.532C3.76829 23.3767 3.64053 23.2494 3.48777 23.1635C3.33501 23.0777 3.1629 23.0364 2.9896 23.0442C2.83853 23.0363 2.68809 23.0697 2.55318 23.1411C2.41828 23.2126 2.3036 23.3197 2.2205 23.4517V23.1131H1.66016V25.8563H2.23698V24.347C2.22615 24.2633 2.2312 24.1782 2.25185 24.0966C2.27249 24.015 2.30832 23.9384 2.3573 23.8713C2.40627 23.8041 2.46743 23.7477 2.53727 23.7053C2.60712 23.6628 2.68428 23.6352 2.76436 23.6239C2.80274 23.6202 2.84135 23.6202 2.87973 23.6239C3.25878 23.6239 3.45106 23.8821 3.45106 24.347V25.8735H4.02788V24.347C4.00685 24.1773 4.05116 24.0058 4.15107 23.8702C4.25099 23.7346 4.39834 23.646 4.56076 23.6239C4.59732 23.6207 4.63407 23.6207 4.67063 23.6239C5.06067 23.6239 5.24745 23.8821 5.24745 24.347V25.8735L5.82428 25.8563ZM14.3585 23.1131H13.4191V22.281H12.8423V23.1131H12.3204V23.6583H12.8533V24.9208C12.8533 25.5579 13.0895 25.9366 13.7652 25.9366C14.0177 25.9375 14.2652 25.8639 14.4794 25.7243L14.3146 25.2135C14.1614 25.309 13.9875 25.3623 13.8092 25.3685C13.5345 25.3685 13.4301 25.1848 13.4301 24.9094V23.6583H14.364L14.3585 23.1131ZM19.2313 23.0442C19.092 23.0399 18.9542 23.075 18.8324 23.1457C18.7105 23.2164 18.6092 23.3201 18.5391 23.446V23.1131H17.9733V25.8563H18.5446V24.3183C18.5446 23.8649 18.7314 23.6124 19.094 23.6124C19.2162 23.6106 19.3375 23.634 19.4511 23.6812L19.6269 23.1074C19.4964 23.0585 19.3589 23.0333 19.2203 23.0328L19.2313 23.0442ZM11.8644 23.3312C11.541 23.1305 11.1692 23.0309 10.7932 23.0442C10.1285 23.0442 9.69449 23.3771 9.69449 23.9223C9.69449 24.3699 10.0131 24.6454 10.6009 24.7315L10.8756 24.7716C11.1887 24.8175 11.3371 24.9036 11.3371 25.0586C11.3371 25.2709 11.1283 25.3914 10.7383 25.3914C10.4246 25.4007 10.117 25.2996 9.86479 25.1045L9.59011 25.5693C9.92283 25.8123 10.3215 25.937 10.7273 25.9252C11.4854 25.9252 11.9249 25.5521 11.9249 25.0299C11.9249 24.5076 11.5788 24.2953 11.0075 24.2092L10.7328 24.1691C10.4856 24.1346 10.2878 24.083 10.2878 23.8993C10.2878 23.7157 10.4746 23.5779 10.7877 23.5779C11.0771 23.5813 11.3609 23.6624 11.6117 23.8132L11.8644 23.3312ZM27.1668 23.0442C27.0275 23.0399 26.8896 23.075 26.7678 23.1457C26.646 23.2164 26.5447 23.3201 26.4746 23.446V23.1131H25.9087V25.8563H26.4801V24.3183C26.4801 23.8649 26.6669 23.6124 27.0294 23.6124C27.1516 23.6106 27.273 23.634 27.3865 23.6812L27.5623 23.1074C27.4318 23.0585 27.2944 23.0333 27.1558 23.0328L27.1668 23.0442ZM19.8054 24.479C19.7928 24.8461 19.9202 25.2035 20.1597 25.4725C20.3992 25.7415 20.7312 25.9002 21.0826 25.9137H21.2062C21.5493 25.9319 21.8864 25.8152 22.1511 25.5866L21.8765 25.1045C21.679 25.2618 21.4381 25.3484 21.1898 25.3513C20.9786 25.3334 20.7816 25.2332 20.6379 25.0705C20.4943 24.9078 20.4145 24.6945 20.4145 24.4732C20.4145 24.2519 20.4943 24.0387 20.6379 23.876C20.7816 23.7133 20.9786 23.613 21.1898 23.5952C21.4381 23.5981 21.679 23.6846 21.8765 23.8419L22.1511 23.3599C21.8864 23.1312 21.5493 23.0145 21.2062 23.0328C21.0322 23.0223 20.8578 23.0478 20.6932 23.1077C20.5286 23.1677 20.3769 23.261 20.2468 23.3822C20.1167 23.5035 20.0107 23.6503 19.935 23.8144C19.8592 23.9785 19.8152 24.1565 19.8054 24.3383C19.8054 24.3814 19.8054 24.4244 19.8054 24.4675V24.479ZM25.1561 24.479V23.1131H24.5848V23.446C24.4878 23.3155 24.3624 23.2111 24.2192 23.1412C24.0759 23.0714 23.9188 23.0381 23.7608 23.0442C23.3965 23.0442 23.0472 23.1954 22.7896 23.4645C22.5321 23.7335 22.3874 24.0984 22.3874 24.479C22.3874 24.8595 22.5321 25.2244 22.7896 25.4935C23.0472 25.7625 23.3965 25.9137 23.7608 25.9137C23.9188 25.9198 24.0759 25.8865 24.2192 25.8167C24.3624 25.7468 24.4878 25.6424 24.5848 25.5119V25.8448H25.1561V24.479ZM23.0301 24.479C23.0384 24.2636 23.1272 24.0602 23.2774 23.9124C23.4276 23.7646 23.6273 23.6843 23.8336 23.6886C24.0399 23.6929 24.2364 23.7815 24.3808 23.9355C24.5252 24.0894 24.6061 24.2964 24.6061 24.5119C24.6061 24.7275 24.5252 24.9345 24.3808 25.0884C24.2364 25.2424 24.0399 25.331 23.8336 25.3353C23.6273 25.3396 23.4276 25.2593 23.2774 25.1115C23.1272 24.9637 23.0384 24.7603 23.0301 24.5449C23.0301 24.522 23.0301 24.5019 23.0301 24.479ZM16.1357 23.0442C15.7714 23.0496 15.4241 23.2058 15.1702 23.4787C14.9162 23.7515 14.7764 24.1185 14.7815 24.499C14.7866 24.8795 14.9362 25.2424 15.1974 25.5077C15.4585 25.7729 15.8099 25.919 16.1741 25.9137C16.5721 25.937 16.9641 25.804 17.2729 25.5406L16.9982 25.0988C16.7813 25.2805 16.5126 25.3814 16.2346 25.3857C16.0457 25.4027 15.858 25.342 15.7113 25.2166C15.5646 25.0912 15.4705 24.911 15.449 24.7142H17.3992V24.4847C17.3992 23.6239 16.8883 23.05 16.1522 23.05L16.1357 23.0442ZM16.1357 23.5779C16.2212 23.576 16.3062 23.5918 16.3859 23.6242C16.4656 23.6566 16.5383 23.7051 16.6001 23.7669C16.6618 23.8288 16.7113 23.9027 16.7456 23.9845C16.78 24.0663 16.7986 24.1543 16.8004 24.2437H15.427C15.437 24.0595 15.5156 23.8866 15.646 23.7622C15.7764 23.6378 15.9482 23.5717 16.1247 23.5779H16.1357ZM30.4492 24.4847V22.0112H29.8998V23.446C29.8028 23.3155 29.6775 23.2111 29.5342 23.1412C29.3909 23.0714 29.2338 23.0381 29.0758 23.0442C28.7115 23.0442 28.3622 23.1954 28.1046 23.4645C27.8471 23.7335 27.7024 24.0984 27.7024 24.479C27.7024 24.8595 27.8471 25.2244 28.1046 25.4935C28.3622 25.7625 28.7115 25.9137 29.0758 25.9137C29.2338 25.9198 29.3909 25.8865 29.5342 25.8167C29.6775 25.7468 29.8028 25.6424 29.8998 25.5119V25.8448H30.4492V24.4847ZM31.4023 25.4574C31.4541 25.4576 31.5048 25.473 31.5485 25.502C31.5922 25.5309 31.6272 25.5722 31.6495 25.621C31.6634 25.6545 31.6706 25.6906 31.6706 25.7272C31.6706 25.7637 31.6634 25.7998 31.6495 25.8333C31.6218 25.8989 31.5705 25.9505 31.5067 25.9768C31.4738 25.9921 31.4383 25.9999 31.4023 25.9998C31.3502 25.9993 31.2993 25.9835 31.2556 25.954C31.2118 25.9246 31.177 25.8827 31.1551 25.8333C31.1413 25.7998 31.1343 25.7637 31.1343 25.7272C31.1343 25.6907 31.1413 25.6545 31.1551 25.621C31.1779 25.5708 31.2142 25.5287 31.2596 25.4996C31.3049 25.4706 31.3574 25.4559 31.4105 25.4574H31.4023ZM31.4023 25.9424C31.4297 25.9425 31.4568 25.9366 31.482 25.9252C31.5056 25.9141 31.527 25.8986 31.5451 25.8792C31.5795 25.8401 31.5986 25.7889 31.5986 25.7358C31.5986 25.6826 31.5795 25.6315 31.5451 25.5923C31.5269 25.5731 31.5055 25.5575 31.482 25.5464C31.4568 25.5351 31.4297 25.5292 31.4023 25.5292C31.3749 25.5294 31.3479 25.5352 31.3226 25.5464C31.2863 25.5614 31.2552 25.5875 31.2332 25.6213C31.2113 25.6551 31.1995 25.6949 31.1995 25.7358C31.1995 25.7766 31.2113 25.8165 31.2332 25.8502C31.2552 25.884 31.2863 25.9101 31.3226 25.9252C31.3504 25.9375 31.3804 25.9434 31.4105 25.9424H31.4023ZM31.4188 25.6009C31.4445 25.5994 31.4698 25.6075 31.4902 25.6239C31.4986 25.6311 31.5052 25.6404 31.5095 25.6509C31.5138 25.6613 31.5157 25.6727 31.5149 25.6841C31.5153 25.6936 31.5138 25.7032 31.5105 25.7121C31.5072 25.7209 31.5021 25.729 31.4957 25.7358C31.4799 25.7511 31.4595 25.7602 31.438 25.7616L31.5177 25.8563H31.4545L31.3803 25.7616H31.3556V25.8563H31.3034V25.6038L31.4188 25.6009ZM31.3584 25.6497V25.7185H31.4188C31.4295 25.7221 31.441 25.7221 31.4517 25.7185C31.4537 25.7145 31.4547 25.7101 31.4547 25.7056C31.4547 25.7012 31.4537 25.6967 31.4517 25.6927C31.4537 25.6887 31.4547 25.6843 31.4547 25.6798C31.4547 25.6753 31.4537 25.6709 31.4517 25.6669C31.441 25.6634 31.4295 25.6634 31.4188 25.6669L31.3584 25.6497ZM28.3369 24.4847C28.3452 24.2693 28.4339 24.0659 28.5842 23.9181C28.7344 23.7704 28.9341 23.69 29.1404 23.6943C29.3467 23.6986 29.5431 23.7873 29.6876 23.9412C29.832 24.0952 29.9129 24.3021 29.9129 24.5177C29.9129 24.7332 29.832 24.9402 29.6876 25.0941C29.5431 25.2481 29.3467 25.3367 29.1404 25.3411C28.9341 25.3454 28.7344 25.265 28.5842 25.1173C28.4339 24.9695 28.3452 24.7661 28.3369 24.5507C28.3369 24.5277 28.3369 24.5076 28.3369 24.4847ZM9.04625 24.4847V23.1131H8.47492V23.446C8.3779 23.3155 8.25257 23.2111 8.10929 23.1412C7.96602 23.0714 7.80889 23.0381 7.65089 23.0442C7.28664 23.0442 6.93731 23.1954 6.67975 23.4645C6.42219 23.7335 6.2775 24.0984 6.2775 24.479C6.2775 24.8595 6.42219 25.2244 6.67975 25.4935C6.93731 25.7625 7.28664 25.9137 7.65089 25.9137C7.80889 25.9198 7.96602 25.8865 8.10929 25.8167C8.25257 25.7468 8.3779 25.6424 8.47492 25.5119V25.8448H9.04625V24.4847ZM6.92024 24.4847C6.92921 24.2848 7.01267 24.0965 7.15277 23.9601C7.29288 23.8237 7.47852 23.7499 7.67 23.7546C7.86148 23.7593 8.04361 23.8421 8.17745 23.9852C8.31129 24.1283 8.38622 24.3205 8.38622 24.5206C8.38622 24.7206 8.31129 24.9128 8.17745 25.0559C8.04361 25.1991 7.86148 25.2818 7.67 25.2865C7.47852 25.2912 7.29288 25.2174 7.15277 25.081C7.01267 24.9446 6.92921 24.7563 6.92024 24.5564C6.92024 24.5335 6.92024 24.5096 6.92024 24.4847Z" fill="#231F20"/>
      <path d="M20.3281 2.20898H11.6758V18.4529H20.3281V2.20898Z" fill="#FF5F00"/>
      <path d="M12.2256 10.3329C12.224 8.76826 12.5633 7.22377 13.2176 5.81636C13.8719 4.40895 14.8243 3.17553 16.0025 2.20951C14.5437 1.01186 12.7918 0.26712 10.947 0.0603946C9.10221 -0.146331 7.23897 0.1933 5.57021 1.04047C3.90146 1.88764 2.49453 3.20818 1.51021 4.85115C0.525894 6.49412 0.00390625 8.39324 0.00390625 10.3315C0.00390625 12.2697 0.525894 14.1688 1.51021 15.8118C2.49453 17.4547 3.90146 18.7753 5.57021 19.6224C7.23897 20.4696 9.10221 20.8092 10.947 20.6025C12.7918 20.3958 14.5437 19.651 16.0025 18.4534C14.8246 17.4877 13.8725 16.2547 13.2182 14.8478C12.5639 13.441 12.2244 11.897 12.2256 10.3329Z" fill="#EB001B"/>
      <path d="M32 10.3326C32 12.271 31.4778 14.1702 30.4934 15.8132C29.5089 17.4563 28.1017 18.7768 26.4328 19.6238C24.7638 20.4709 22.9004 20.8103 21.0555 20.6033C19.2106 20.3963 17.4587 19.6512 16 18.4531C17.1773 17.4865 18.1292 16.2533 18.7837 14.8463C19.4382 13.4393 19.7783 11.8955 19.7783 10.3312C19.7783 8.76689 19.4382 7.22303 18.7837 5.81607C18.1292 4.40912 17.1773 3.17582 16 2.20923C17.4587 1.01122 19.2106 0.266113 21.0555 0.0590909C22.9004 -0.147932 24.7638 0.191481 26.4328 1.03853C28.1017 1.88558 29.5089 3.20609 30.4934 4.84912C31.4778 6.49215 32 8.39139 32 10.3298V10.3326Z" fill="#F79E1B"/>
      <path d="M31.0571 16.7313V16.3985H31.1862V16.3296H30.8594V16.3985H30.9995V16.7313H31.0571ZM31.6917 16.7313V16.3296H31.5928L31.4774 16.6165L31.362 16.3296H31.2741V16.7313H31.3456V16.4444L31.4527 16.7055H31.5268L31.634 16.4444V16.7485L31.6917 16.7313Z" fill="#F79E1B"/>
    </g>
  </svg>

  <svg viewBox="0 0 49 17" fill="none" xmlns="http://www.w3.org/2000/svg">
    <g id="visa" class="img">
      <path d="M19.7437 0.294434L17.2461 16.7146H21.2432L23.7408 0.294434H19.7437Z" fill="#3371B8"/>
      <path d="M13.8809 0.294434L10.0687 11.5882L9.61678 9.15464L8.27347 1.75722C8.27347 1.75722 8.10916 0.294434 6.37559 0.294434H0.0739437L0 0.571178C1.47538 0.966476 2.88563 1.60049 4.18193 2.45128L7.65728 16.719H11.8228L18.1819 0.294434H13.8809Z" fill="#3371B8"/>
      <path d="M45.3268 16.7145H48.9994L45.7993 0.294345H42.5868C42.1975 0.262357 41.8087 0.363938 41.477 0.584334C41.1453 0.80473 40.888 1.13246 40.7423 1.51993L34.7734 16.7145H38.943L39.7646 14.2765H44.8585L45.3268 16.7145ZM40.9272 10.9073L43.0264 4.75739L44.2095 10.9073H40.9272Z" fill="#3371B8"/>
      <path d="M35.0863 4.24341L35.6574 0.729199C34.4966 0.280979 33.276 0.0347844 32.0423 0C30.0582 0 25.3463 0.926873 25.3463 5.43824C25.3463 9.68165 30.8757 9.73437 30.8757 11.9615C30.8757 14.1886 25.9173 13.7933 24.2782 12.4008L23.7031 16.0731C25.1332 16.7131 26.6719 17.0287 28.2219 17C30.9496 17 35.0658 15.4889 35.0658 11.3773C35.0658 7.10749 29.4872 6.71214 29.4872 4.854C29.4872 2.99587 33.3815 3.23747 35.0904 4.24341" fill="#3371B8"/>
      <path d="M9.61678 9.15903L8.27347 1.75722C8.27347 1.75722 8.10915 0.294434 6.37559 0.294434H0.0739437L0 0.571178C2.17067 1.16153 4.19586 2.24807 5.93603 3.75593C7.59399 5.17342 8.86992 7.03657 9.63322 9.15464" fill="#FCA047"/>
    </g>
  </svg>

  <svg viewBox="0 0 67 16" fill="none" xmlns="http://www.w3.org/2000/svg">
    <g id="paypal" class="img">
      <path fill-rule="evenodd" clip-rule="evenodd" d="M5.84632 3.7663H10.4246C12.8828 3.7663 13.8081 4.99295 13.6651 6.79506C13.43 9.77256 11.6053 11.4162 9.18374 11.4162H7.96175C7.62966 11.4162 7.4063 11.6318 7.31649 12.22L6.79176 15.6332C6.75749 15.8545 6.63931 15.9827 6.46204 16.0002H3.59144C3.32081 16.0002 3.22508 15.7963 3.29599 15.3548L5.0486 4.41283C5.11833 3.97482 5.36178 3.76514 5.84632 3.76514" fill="#009EE3"/>
      <path fill-rule="evenodd" clip-rule="evenodd" d="M25.7212 3.56318C27.2659 3.56318 28.6911 4.3891 28.4961 6.44749C28.2598 8.89379 26.9302 10.2474 24.8325 10.2532H22.9995C22.736 10.2532 22.6084 10.4653 22.5398 10.8998L22.1853 13.1212C22.1321 13.4567 21.9572 13.6221 21.6996 13.6221H19.9954C19.7236 13.6221 19.629 13.4509 19.6893 13.0677L21.0992 4.1631C21.1689 3.7251 21.3356 3.56201 21.6393 3.56201L25.7212 3.56318ZM22.944 8.32998H24.3326C25.2012 8.29736 25.778 7.70442 25.8359 6.63504C25.8713 5.97453 25.4199 5.50158 24.699 5.50508H23.3907L22.944 8.32998ZM33.1323 12.9407C33.2883 12.8021 33.4467 12.7287 33.4242 12.9011L33.3687 13.3134C33.3403 13.529 33.4266 13.6431 33.6299 13.6431H35.1449C35.4002 13.6431 35.5243 13.5418 35.5869 13.1527L36.5158 7.37708C36.5631 7.08702 36.491 6.9449 36.2677 6.9449H34.606C34.456 6.9449 34.3827 7.02761 34.3437 7.2536L34.2822 7.6089C34.2503 7.79412 34.164 7.82674 34.0837 7.64035C33.8012 6.98101 33.0803 6.68513 32.0746 6.70843C29.7323 6.75619 28.1569 8.50355 27.9891 10.7425C27.8591 12.4759 29.1189 13.8377 30.7805 13.8377C31.986 13.8377 32.5249 13.4882 33.1323 12.9407ZM31.8643 12.053C30.8585 12.053 30.1577 11.262 30.3031 10.2928C30.4485 9.32364 31.3892 8.53267 32.3949 8.53267C33.4006 8.53267 34.1026 9.31898 33.956 10.2928C33.8095 11.2667 32.87 12.053 31.8643 12.053ZM39.4869 6.92743H37.9505C37.6338 6.92743 37.505 7.16041 37.6055 7.44698L39.5129 12.9523L37.6338 15.571C37.4766 15.79 37.5984 15.9892 37.8194 15.9892H39.546C39.6466 16.0007 39.7485 15.9834 39.8394 15.9394C39.9303 15.8954 40.0065 15.8266 40.0589 15.7411L45.9254 7.44698C46.1062 7.19186 46.0211 6.92393 45.7245 6.92393H44.0971C43.817 6.92393 43.7048 7.03343 43.544 7.26292L41.0977 10.7576L40.0092 7.25244C39.9419 7.03693 39.7823 6.9251 39.4881 6.9251" fill="#113984"/>
      <path fill-rule="evenodd" clip-rule="evenodd" d="M52.0376 3.56318C53.5823 3.56318 55.0075 4.3891 54.8125 6.44749C54.5762 8.89379 53.2466 10.2474 51.1489 10.2532H49.3171C49.0536 10.2532 48.926 10.4653 48.8574 10.8998L48.5029 13.1212C48.4497 13.4567 48.2748 13.6222 48.0171 13.6222H46.3118C46.04 13.6222 45.9454 13.4509 46.0057 13.0677L47.4156 4.1631C47.4853 3.7251 47.652 3.56201 47.9557 3.56201L52.0376 3.56318ZM49.2604 8.32998H50.649C51.5177 8.29736 52.0944 7.70442 52.1535 6.63504C52.1889 5.97453 51.7363 5.50158 51.0166 5.50508H49.7095L49.2604 8.32998ZM59.4452 12.9407C59.6012 12.8021 59.7596 12.7287 59.7371 12.9011L59.6816 13.3135C59.6532 13.529 59.7395 13.6431 59.9427 13.6431H61.4578C61.7131 13.6431 61.8372 13.5418 61.8998 13.1527L62.8334 7.37708C62.8807 7.08702 62.8086 6.9449 62.5852 6.9449H60.9236C60.7735 6.9449 60.7003 7.02761 60.6613 7.2536L60.5998 7.6089C60.5679 7.79412 60.4816 7.82674 60.4013 7.64035C60.1188 6.98101 59.3979 6.68513 58.3922 6.70843C56.0499 6.75619 54.4745 8.50355 54.3055 10.7425C54.1755 12.477 55.4365 13.8377 57.0969 13.8377C58.3024 13.8377 58.8413 13.4882 59.4487 12.9407H59.4452ZM58.1807 12.053C57.1749 12.053 56.4741 11.262 56.6195 10.2928C56.7649 9.32364 57.7056 8.53267 58.7113 8.53267C59.717 8.53267 60.419 9.31898 60.2725 10.2928C60.1259 11.2667 59.1864 12.053 58.1807 12.053ZM65.1687 13.6536H63.4196C63.3892 13.6549 63.3588 13.6496 63.3307 13.6381C63.3026 13.6265 63.2774 13.609 63.257 13.5867C63.2366 13.5645 63.2214 13.5381 63.2125 13.5093C63.2036 13.4806 63.2013 13.4503 63.2057 13.4206L64.742 3.82761C64.7567 3.76213 64.7934 3.70347 64.8462 3.66117C64.899 3.61887 64.9647 3.59542 65.0328 3.59463H66.7806C66.8112 3.59311 66.8417 3.59828 66.8699 3.60976C66.8982 3.62124 66.9235 3.63874 66.944 3.66102C66.9646 3.6833 66.9799 3.7098 66.9888 3.7386C66.9978 3.7674 67.0001 3.7978 66.9957 3.82761L65.4594 13.4206C65.4447 13.4861 65.408 13.5448 65.3552 13.5871C65.3024 13.6294 65.2367 13.6528 65.1687 13.6536Z" fill="#009EE3"/>
      <path fill-rule="evenodd" clip-rule="evenodd" d="M2.98267 0H7.56334C8.86333 0 10.389 0.0407717 11.4125 0.931926C12.0967 1.52719 12.456 2.47426 12.3721 3.49472C12.0908 6.94401 9.99786 8.87659 7.18989 8.87659H4.93029C4.54502 8.87659 4.29093 9.12821 4.1822 9.80852L3.55112 13.7692C3.50976 14.0255 3.39749 14.1769 3.19658 14.1956H0.368523C0.0553452 14.1956 -0.0557443 13.9626 0.0258002 13.4477L2.0585 0.7502C2.14005 0.242301 2.4225 0 2.98267 0Z" fill="#113984"/>
      <path fill-rule="evenodd" clip-rule="evenodd" d="M4.24609 9.40678L5.04618 4.41283C5.1159 3.97482 5.35935 3.76514 5.84271 3.76514H10.4222C11.1797 3.76514 11.7931 3.88163 12.2729 4.09714C11.8132 7.16783 9.79821 8.87325 7.16042 8.87325H4.89963C4.60182 8.87325 4.37964 9.02353 4.24609 9.40678Z" fill="#172C70"/>
    </g>
  </svg>

  <svg viewBox="0 0 78 14" fill="none" xmlns="http://www.w3.org/2000/svg">
    <g id="yandex" class="img">
      <path d="M3.75678 7.4032L1.58438 12.0022H0L2.38622 7.084C1.26364 6.5464 0.516743 5.5734 0.516743 3.78C0.516743 1.26 2.20804 0 4.22007 0H6.26774V12.0022H4.90015V7.4032H3.75678ZM4.90015 1.0906H4.16661C3.06334 1.0906 1.99421 1.7794 1.99421 3.7772C1.99421 5.7078 2.96979 6.328 4.16661 6.328H4.90015V1.0906Z" fill="#FF0000"/>
      <path d="M12.8752 3.54219V12.0024H11.5046V8.20839H9.43916V12.0024H8.05078V3.54219H9.43916V7.14019H11.5046V3.54219H12.8752ZM20.0146 13.6642H18.7687V12.0024H14.9229V13.6642H13.677V10.9286H14.2294C15.0476 9.13238 15.1367 6.51439 15.1367 4.26459V3.54219H19.3048V10.9286H20.0175L20.0146 13.6642ZM17.9357 4.59919H16.3825V4.75039C16.3825 6.52979 16.2934 9.13099 15.545 10.9272H17.9313L17.9357 4.59919ZM23.8471 12.12C21.9954 12.12 20.8565 10.72 20.8565 8.12579C20.8565 5.40559 21.6583 3.42459 23.5635 3.42459C25.0588 3.42459 26.0388 4.48159 26.0388 7.35299V8.07539H22.2939C22.2939 9.98919 22.8641 10.9958 23.9674 10.9958C24.6029 10.9793 25.2179 10.7799 25.7299 10.4246L26.0507 11.4312C25.4183 11.8893 24.64 12.1321 23.8426 12.12H23.8471ZM22.3117 7.00019H24.6088C24.6088 5.55679 24.3594 4.49839 23.559 4.49839C22.7037 4.49839 22.4023 5.48819 22.3132 7.00019H22.3117ZM28.8467 7.78839V12.0024H27.4569V3.54219H28.8452V7.45379L30.9998 3.54219H32.406L30.1787 7.52099L32.7253 12.001H31.2136L28.8467 7.78839ZM32.9064 7.77159C32.9064 5.11859 33.9919 3.42319 36.093 3.42319C36.6797 3.40284 37.2584 3.55553 37.7487 3.85999L37.5527 5.10179C37.1785 4.79939 36.6454 4.51379 36.0678 4.51379C35.0714 4.51379 34.3587 5.57079 34.3587 7.70299C34.3587 9.83519 34.8932 11.0266 36.0143 11.0266C36.5693 11.0334 37.1077 10.8481 37.5274 10.5058L37.8482 11.4858C37.333 11.9137 36.665 12.1418 35.9787 12.1242C34.0557 12.1242 32.899 10.664 32.899 7.77719" fill="black"/>
      <path d="M47.299 12.0022H41.8509L41.7262 14H41.0312V11.3148H41.4054C42.0291 10.8276 42.3305 9.485 42.5087 7.7728C42.6869 5.9934 42.7404 3.3404 42.7938 0H47.2485V11.3148H48.1112V14H47.4163L47.299 12.0022ZM46.3546 0.6888H43.5957C43.5422 3.7268 43.4472 6.0438 43.3106 7.7728C43.1502 9.569 42.8651 10.7604 42.3855 11.3148H46.3561L46.3546 0.6888Z" fill="black"/>
      <path d="M51.802 11.48C52.1586 11.4729 52.5086 11.3874 52.8239 11.2301C53.1392 11.0728 53.4112 10.8482 53.618 10.5742L53.8853 11.2112C53.6388 11.5146 53.3204 11.7592 52.9555 11.9255C52.5906 12.0918 52.1894 12.1752 51.7842 12.1688C49.8805 12.1702 49 10.542 49 7.77282C49 5.00362 50.1033 3.37402 51.6179 3.37402C53.1666 3.37402 54.163 4.90142 53.8794 7.90722H49.8256C49.8612 10.22 50.5027 11.48 51.802 11.48ZM49.8434 7.28002H53.1028C53.2513 5.03162 52.5326 4.02362 51.6179 4.02362C50.675 4.02362 49.9088 5.16462 49.836 7.28002" fill="black"/>
      <path d="M59.372 7.92259H56.3101V12.0022H55.4727V3.54199H56.3101V7.28419H59.372V3.54199H60.2095V12.0022H59.372V7.92259Z" fill="black"/>
      <path d="M62.1875 3.54199H63.0235V6.68079H63.6828C65.3919 6.68079 66.4952 7.55439 66.4952 9.31699C66.4952 11.1132 65.3206 12.0022 63.6293 12.0022H62.1875V3.54199ZM63.0235 7.30239V11.3806H63.5536C64.8173 11.3806 65.6726 10.794 65.6726 9.33239C65.6726 7.90579 64.9301 7.30099 63.6427 7.30099L63.0235 7.30239Z" fill="black"/>
      <path d="M68.7572 4.19719V12.0022H67.9375V3.54199H71.7299V4.19719H68.7572Z" fill="black"/>
      <path d="M77.1969 6.10959C77.2001 5.72278 77.2238 5.33635 77.2682 4.95179H77.2132C77.0836 5.3267 76.9227 5.69136 76.7321 6.04239L73.8143 12.0022H73.1016V3.54199H73.8856V9.42199C73.8856 9.87559 73.8499 10.2438 73.8143 10.6134H73.8678C74.002 10.2305 74.1627 9.8564 74.3489 9.49339L77.2682 3.54199H77.9973V12.0022H77.1969V6.10959Z" fill="black"/>
    </g>
  </svg>

  <svg viewBox="0 0 80 13" fill="none" xmlns="http://www.w3.org/2000/svg">
    <g id="sber" class="img">
      <path d="M11.0124 2.50342C11.3044 2.89911 11.5517 3.32901 11.7491 3.78446L6.14902 8.11077L3.80859 6.57322V4.72348L6.14902 6.26102L11.0124 2.50342Z" fill="#21A038"/>
      <path d="M1.42029 6.44283C1.42029 6.35983 1.42222 6.27738 1.42609 6.1954L0.00772465 6.12256C0.00289701 6.2288 1.71402e-06 6.33607 1.71402e-06 6.44433C-0.00060176 7.29019 0.158154 8.12783 0.467166 8.90921C0.776175 9.69062 1.22936 10.4004 1.80071 10.9978L2.80679 9.94393C2.36698 9.48487 2.01808 8.93922 1.78014 8.33839C1.54219 7.73755 1.4199 7.09334 1.42029 6.44283Z" fill="url(#paint0_linear)"/>
      <path d="M6.14809 1.48796C6.22725 1.48796 6.30592 1.49099 6.38413 1.49504L6.4551 0.00808185C6.35343 0.00302245 6.25106 0.00049306 6.14809 0.00049306C5.34059 -0.000538935 4.54089 0.165598 3.79486 0.489364C3.04882 0.813131 2.37116 1.28815 1.80078 1.88715L2.80686 2.94153C3.24491 2.48045 3.76562 2.11467 4.33903 1.86521C4.91243 1.61576 5.52722 1.48755 6.14809 1.48796Z" fill="url(#paint1_linear)"/>
      <path d="M6.14735 11.3974C6.06819 11.3974 5.98948 11.3974 5.91082 11.3908L5.83984 12.8773C5.94186 12.8827 6.04438 12.8854 6.14735 12.8854C6.95451 12.8862 7.75382 12.72 8.49946 12.3961C9.2451 12.0723 9.92232 11.5972 10.4923 10.9982L9.48811 9.94434C9.04998 10.4052 8.52933 10.7707 7.95603 11.0201C7.38274 11.2695 6.76807 11.3977 6.14735 11.3974Z" fill="url(#paint2_linear)"/>
      <path d="M8.81135 2.35263L10.0067 1.42929C8.91413 0.502135 7.55036 -0.00257369 6.14453 9.86961e-06V1.48798C7.09649 1.48674 8.02636 1.78824 8.81135 2.35263Z" fill="url(#paint3_linear)"/>
      <path d="M12.2936 6.44264C12.2944 6.05556 12.2621 5.66914 12.1971 5.28809L10.8738 6.31008C10.8738 6.35413 10.8738 6.39813 10.8738 6.44264C10.8742 7.13491 10.7357 7.81954 10.4674 8.45213C10.1991 9.08472 9.80696 9.65116 9.31641 10.1147L10.2708 11.2203C10.9086 10.6169 11.4182 9.87976 11.7667 9.05675C12.1152 8.23369 12.2947 7.34307 12.2936 6.44264Z" fill="#21A038"/>
      <path d="M6.14859 11.3973C5.48798 11.3975 4.83469 11.2524 4.23099 10.9712C3.62733 10.6901 3.08672 10.2791 2.6442 9.76514L1.58984 10.7649C2.16552 11.4334 2.86883 11.9675 3.65418 12.3328C4.43953 12.6981 5.28936 12.8863 6.14859 12.8853V11.3973Z" fill="url(#paint4_linear)"/>
      <path d="M2.9777 2.77052L2.02375 1.66504C1.38581 2.26831 0.875993 3.00537 0.527352 3.82842C0.178717 4.65146 -0.000950503 5.54212 3.78157e-06 6.44263H1.4203C1.42 5.7504 1.55849 5.06577 1.82678 4.43318C2.09507 3.80061 2.48717 3.23415 2.9777 2.77052Z" fill="url(#paint5_linear)"/>
      <path d="M35.4758 3.68458L37.2348 2.3418H31.3477V10.4108H37.2348V9.06799H33.0275V7.00111H36.6165V5.65833H33.0275V3.68458H35.4758Z" fill="#21A038"/>
      <path d="M27.3868 5.48492H25.3429V3.68378H28.6049L30.3629 2.33691H23.6641V10.4059H27.1706C29.1366 10.4059 30.2648 9.48266 30.2648 7.87255C30.2648 6.33221 29.2429 5.48492 27.3868 5.48492ZM27.095 9.06268H25.3429V6.82688H27.095C28.1583 6.82688 28.6569 7.20155 28.6569 7.9448C28.6569 8.68801 28.1264 9.06268 27.095 9.06268Z" fill="#21A038"/>
      <path d="M41.5639 2.34033H38.3594V10.4093H40.039V8.12349H41.5639C43.6085 8.12349 44.8733 7.00876 44.8733 5.2276C44.8733 3.44649 43.6085 2.34033 41.5639 2.34033ZM41.5285 6.77968H40.039V3.68414H41.5285C42.6039 3.68414 43.1975 4.23416 43.1975 5.23253C43.1975 6.23089 42.6039 6.77968 41.5285 6.77968Z" fill="#21A038"/>
      <path d="M21.1448 8.50518C20.7109 8.74863 20.2248 8.87469 19.7314 8.8717C18.2547 8.8717 17.1834 7.77934 17.1834 6.27517C17.1834 4.77095 18.2547 3.67622 19.7314 3.67622C20.2639 3.66685 20.7854 3.83417 21.2197 4.15376L22.3946 3.2572L22.3151 3.1987C21.6298 2.57434 20.714 2.24365 19.6658 2.24365C18.5288 2.24365 17.4979 2.63999 16.7618 3.36106C16.3896 3.73232 16.0953 4.17909 15.8971 4.67349C15.6989 5.16788 15.6011 5.69926 15.6099 6.23455C15.602 6.77527 15.6994 7.31209 15.8961 7.81298C16.0928 8.31388 16.3849 8.76852 16.7549 9.14986C17.4944 9.89956 18.5231 10.3126 19.6519 10.3126C20.8315 10.3126 21.8625 9.88641 22.5605 9.11046L21.5088 8.29867L21.1448 8.50518Z" fill="#21A038"/>
      <path d="M51.5316 5.48492H49.4886V3.68378H53.8791V2.33691H47.8086V10.4059H51.3107C53.2764 10.4059 54.4048 9.48266 54.4048 7.87255C54.4093 6.33221 53.3876 5.48492 51.5316 5.48492ZM51.2398 9.06268H49.4886V6.82688H51.2398C52.3031 6.82688 52.8014 7.20155 52.8014 7.9448C52.8014 8.68801 52.2756 9.06268 51.2398 9.06268Z" fill="#21A038"/>
      <path d="M73.5036 10.3947H71.8008V2.32568H73.5036V5.7147H74.4305L76.9333 2.32568H78.8633L75.8945 6.16419L79.3417 10.3947H77.0823L74.5486 7.22121H73.5036V10.3947Z" fill="#21A038"/>
      <path d="M60.5916 8.86095H56.9893L56.3786 10.4278H54.5664L57.9451 2.35889H59.7569L63.0807 10.4278H61.2022L60.5916 8.86095ZM60.0274 7.39892L58.8011 4.2651L57.5679 7.39892H60.0274Z" fill="#21A038"/>
      <path d="M65.3769 2.35889V5.72835H68.9007V2.35889H70.6565V10.4278H68.9007V7.2484H65.3769V10.4278H63.6211V2.35889H65.3769Z" fill="#21A038"/>
      <defs>
      <linearGradient id="paint0_linear" x1="2.08796" y1="10.8121" x2="0.401519" y2="6.16031" gradientUnits="userSpaceOnUse">
      <stop offset="0.14" stop-color="#F1E813"/>
      <stop offset="0.3" stop-color="#E6E418"/>
      <stop offset="0.58" stop-color="#C9DA26"/>
      <stop offset="0.89" stop-color="#A2CC39"/>
      </linearGradient>
      <linearGradient id="paint1_linear" x1="2.2063" y1="2.15024" x2="6.24899" y2="0.680197" gradientUnits="userSpaceOnUse">
      <stop offset="0.06" stop-color="#0FA7DF"/>
      <stop offset="0.54" stop-color="#0098F8"/>
      <stop offset="0.92" stop-color="#0290EA"/>
      </linearGradient>
      <linearGradient id="paint2_linear" x1="5.74621" y1="11.9873" x2="10.2855" y2="11.0088" gradientUnits="userSpaceOnUse">
      <stop offset="0.12" stop-color="#A2CC39"/>
      <stop offset="0.28" stop-color="#86C239"/>
      <stop offset="0.87" stop-color="#219F38"/>
      </linearGradient>
      <linearGradient id="paint3_linear" x1="5.8491" y1="0.498361" x2="9.74345" y2="1.64509" gradientUnits="userSpaceOnUse">
      <stop offset="0.06" stop-color="#0290EA"/>
      <stop offset="0.79" stop-color="#0C89CA"/>
      </linearGradient>
      <linearGradient id="paint4_linear" x1="1.94612" y1="10.5837" x2="6.19863" y2="12.1003" gradientUnits="userSpaceOnUse">
      <stop offset="0.13" stop-color="#F1E813"/>
      <stop offset="0.3" stop-color="#EAE616"/>
      <stop offset="0.53" stop-color="#D8DF1F"/>
      <stop offset="0.8" stop-color="#BAD52D"/>
      <stop offset="0.98" stop-color="#A2CC39"/>
      </linearGradient>
      <linearGradient id="paint5_linear" x1="0.529112" y1="6.62274" x2="2.36015" y2="2.07774" gradientUnits="userSpaceOnUse">
      <stop offset="0.07" stop-color="#A2CC39"/>
      <stop offset="0.26" stop-color="#81C45E"/>
      <stop offset="0.92" stop-color="#0FA7DF"/>
      </linearGradient>
      </defs>
    </g>
  </svg>

  <svg viewBox="0 0 20 20" fill="none" xmlns="http://www.w3.org/2000/svg">
    <g id="click" class="img">
      <path d="M10.0005 8.125V2.8125C10.0005 2.3981 9.83588 2.00067 9.54285 1.70765C9.24983 1.41462 8.8524 1.25 8.438 1.25C8.0236 1.25 7.62617 1.41462 7.33315 1.70765C7.04012 2.00067 6.8755 2.3981 6.8755 2.8125V12.2864L5.16241 9.31926C5.05991 9.14138 4.92336 8.98544 4.76056 8.86036C4.59776 8.73528 4.41191 8.64351 4.21363 8.59029C4.01535 8.53707 3.80852 8.52345 3.60497 8.5502C3.40142 8.57696 3.20514 8.64356 3.02734 8.74621C2.84955 8.84886 2.69373 8.98555 2.56878 9.14845C2.44384 9.31135 2.35222 9.49728 2.29917 9.6956C2.24611 9.89393 2.23266 10.1008 2.25959 10.3043C2.28651 10.5078 2.35328 10.704 2.45608 10.8818C5.0005 16.25 6.54872 18.125 10.0005 18.125C10.8213 18.125 11.634 17.9633 12.3923 17.6492C13.1506 17.3352 13.8396 16.8748 14.4199 16.2944C15.0003 15.7141 15.4607 15.0251 15.7747 14.2668C16.0888 13.5085 16.2505 12.6958 16.2505 11.875V8.75C16.2505 8.3356 16.0859 7.93817 15.7929 7.64515C15.4998 7.35212 15.1024 7.1875 14.688 7.1875C14.2736 7.1875 13.8762 7.35212 13.5831 7.64515C13.2901 7.93817 13.1255 8.3356 13.1255 8.75" stroke="#2CCC59" stroke-linecap="round" stroke-linejoin="round"/>
      <path d="M13.125 8.75V7.8125C13.125 7.3981 12.9604 7.00067 12.6674 6.70765C12.3743 6.41462 11.9769 6.25 11.5625 6.25C11.1481 6.25 10.7507 6.41462 10.4576 6.70765C10.1646 7.00067 10 7.3981 10 7.8125V8.125" stroke="#2CCC59" stroke-linecap="round" stroke-linejoin="round"/>
    </g>
  </svg>
  <svg viewBox="0 0 20 20" fill="none" xmlns="http://www.w3.org/2000/svg">
    <g id="click-hover" class="img">
      <path d="M10.0005 8.125V2.8125C10.0005 2.3981 9.83588 2.00067 9.54285 1.70765C9.24983 1.41462 8.8524 1.25 8.438 1.25C8.0236 1.25 7.62617 1.41462 7.33315 1.70765C7.04012 2.00067 6.8755 2.3981 6.8755 2.8125V12.2864L5.16241 9.31926C5.05991 9.14138 4.92336 8.98544 4.76056 8.86036C4.59776 8.73528 4.41191 8.64351 4.21363 8.59029C4.01535 8.53707 3.80852 8.52345 3.60497 8.5502C3.40142 8.57696 3.20514 8.64356 3.02734 8.74621C2.84955 8.84886 2.69373 8.98555 2.56878 9.14845C2.44384 9.31135 2.35222 9.49728 2.29917 9.6956C2.24611 9.89393 2.23266 10.1008 2.25959 10.3043C2.28651 10.5078 2.35328 10.704 2.45608 10.8818C5.0005 16.25 6.54872 18.125 10.0005 18.125C10.8213 18.125 11.634 17.9633 12.3923 17.6492C13.1506 17.3352 13.8396 16.8748 14.4199 16.2944C15.0003 15.7141 15.4607 15.0251 15.7747 14.2668C16.0888 13.5085 16.2505 12.6958 16.2505 11.875V8.75C16.2505 8.3356 16.0859 7.93817 15.7929 7.64515C15.4998 7.35212 15.1024 7.1875 14.688 7.1875C14.2736 7.1875 13.8762 7.35212 13.5831 7.64515C13.2901 7.93817 13.1255 8.3356 13.1255 8.75" stroke="#fff" stroke-linecap="round" stroke-linejoin="round"/>
      <path d="M13.125 8.75V7.8125C13.125 7.3981 12.9604 7.00067 12.6674 6.70765C12.3743 6.41462 11.9769 6.25 11.5625 6.25C11.1481 6.25 10.7507 6.41462 10.4576 6.70765C10.1646 7.00067 10 7.3981 10 7.8125V8.125" stroke="#fff" stroke-linecap="round" stroke-linejoin="round"/>
    </g>
  </svg>

  <svg viewBox="0 0 10 10" fill="none" xmlns="http://www.w3.org/2000/svg">
    <g id="caret-right" class="img">
      <path d="M3.75 1.875L6.875 5L3.75 8.125" stroke="#525E6A" stroke-linecap="round" stroke-linejoin="round"/>
    </g>
  </svg>

  <svg viewBox="0 0 16 16" fill="none" xmlns="http://www.w3.org/2000/svg">
    <g id="check" class="img">
      <path d="M13.5 4.50037L6.5 11.5001L3 8.00037" stroke="#2CCC59" stroke-width="2" stroke-linecap="round" stroke-linejoin="round"/>
    </g>
  </svg>

  <svg viewBox="0 0 24 24" fill="none" xmlns="http://www.w3.org/2000/svg">
    <g id="check-promo" class="img">
      <path d="M20.25 6.75049L9.75 17.25L4.5 12.0005" stroke="#0066FF" stroke-width="2" stroke-linecap="round" stroke-linejoin="round"/>
    </g>
  </svg>

  <svg viewBox="0 0 60 60" fill="none" xmlns="http://www.w3.org/2000/svg">
    <g id="storefront" class="img">
      <path d="M11.25 32.7159V48.75C11.25 49.2472 11.4475 49.7242 11.7992 50.0758C12.1508 50.4274 12.6277 50.625 13.125 50.625H46.875C47.3723 50.625 47.8492 50.4274 48.2008 50.0758C48.5525 49.7242 48.75 49.2472 48.75 48.75V32.7163" stroke="#0066FF" stroke-width="2" stroke-linecap="round" stroke-linejoin="round"/>
      <path d="M12.6643 9.375H47.3357C47.7431 9.375 48.1395 9.50773 48.4648 9.7531C48.7901 9.99847 49.0266 10.3431 49.1385 10.7349L52.5 22.5H7.5L10.8615 10.7349C10.9734 10.3431 11.2099 9.99847 11.5352 9.7531C11.8605 9.50773 12.2569 9.375 12.6643 9.375Z" stroke="#0066FF" stroke-width="2" stroke-linecap="round" stroke-linejoin="round"/>
      <path d="M22.5 22.5V26.25C22.5 28.2391 21.7098 30.1468 20.3033 31.5533C18.8968 32.9598 16.9891 33.75 15 33.75C13.0109 33.75 11.1032 32.9598 9.6967 31.5533C8.29018 30.1468 7.5 28.2391 7.5 26.25V22.5" stroke="#0066FF" stroke-width="2" stroke-linecap="round" stroke-linejoin="round"/>
      <path d="M37.5 22.5V26.25C37.5 28.2391 36.7098 30.1468 35.3033 31.5533C33.8968 32.9598 31.9891 33.75 30 33.75C28.0109 33.75 26.1032 32.9598 24.6967 31.5533C23.2902 30.1468 22.5 28.2391 22.5 26.25V22.5" stroke="#0066FF" stroke-width="2" stroke-linecap="round" stroke-linejoin="round"/>
      <path d="M52.5 22.5V26.25C52.5 28.2391 51.7098 30.1468 50.3033 31.5533C48.8968 32.9598 46.9891 33.75 45 33.75C43.0109 33.75 41.1032 32.9598 39.6967 31.5533C38.2902 30.1468 37.5 28.2391 37.5 26.25V22.5" stroke="#0066FF" stroke-width="2" stroke-linecap="round" stroke-linejoin="round"/>
    </g>
  </svg>

  <svg viewBox="0 0 60 60" fill="none" xmlns="http://www.w3.org/2000/svg">
    <g id="car" class="img">
      <path d="M3.75 28.125H56.25" stroke="#0066FF" stroke-width="2" stroke-linecap="round" stroke-linejoin="round"/>
      <path d="M52.5 43.125V48.75C52.5 49.2473 52.3025 49.7242 51.9508 50.0758C51.5992 50.4275 51.1223 50.625 50.625 50.625H45C44.5027 50.625 44.0258 50.4275 43.6742 50.0758C43.3225 49.7242 43.125 49.2473 43.125 48.75V43.125" stroke="#0066FF" stroke-width="2" stroke-linecap="round" stroke-linejoin="round"/>
      <path d="M16.875 43.125V48.75C16.875 49.2473 16.6775 49.7242 16.3258 50.0758C15.9742 50.4275 15.4973 50.625 15 50.625H9.375C8.87772 50.625 8.40081 50.4275 8.04918 50.0758C7.69754 49.7242 7.5 49.2473 7.5 48.75V43.125" stroke="#0066FF" stroke-width="2" stroke-linecap="round" stroke-linejoin="round"/>
      <path d="M15 35.625H18.75" stroke="#0066FF" stroke-width="2" stroke-linecap="round" stroke-linejoin="round"/>
      <path d="M41.25 35.625H45" stroke="#0066FF" stroke-width="2" stroke-linecap="round" stroke-linejoin="round"/>
      <path d="M52.5 28.125L45.4949 12.3635C45.3476 12.0321 45.1073 11.7505 44.8032 11.5528C44.4991 11.3552 44.1442 11.25 43.7815 11.25H16.2185C15.8558 11.25 15.5009 11.3552 15.1968 11.5528C14.8927 11.7505 14.6524 12.0321 14.5051 12.3635L7.5 28.125V43.125H52.5V28.125Z" stroke="#0066FF" stroke-width="2" stroke-linecap="round" stroke-linejoin="round"/>
    </g>
  </svg>

  <svg viewBox="0 0 60 60" fill="none" xmlns="http://www.w3.org/2000/svg">
    <g id="truck" class="img">
      <path d="M56.25 28.125H41.25V18.75H51.2306C51.6053 18.75 51.9714 18.8623 52.2817 19.0724C52.592 19.2825 52.8323 19.5807 52.9715 19.9286L56.25 28.125Z" stroke="#0066FF" stroke-width="2" stroke-linecap="round" stroke-linejoin="round"/>
      <path d="M3.75 33.75H41.25" stroke="#0066FF" stroke-width="2" stroke-linecap="round" stroke-linejoin="round"/>
      <path d="M44.0625 50.625C47.1691 50.625 49.6875 48.1066 49.6875 45C49.6875 41.8934 47.1691 39.375 44.0625 39.375C40.9559 39.375 38.4375 41.8934 38.4375 45C38.4375 48.1066 40.9559 50.625 44.0625 50.625Z" stroke="#0066FF" stroke-width="2" stroke-miterlimit="10"/>
      <path d="M15.9375 50.625C19.0441 50.625 21.5625 48.1066 21.5625 45C21.5625 41.8934 19.0441 39.375 15.9375 39.375C12.8309 39.375 10.3125 41.8934 10.3125 45C10.3125 48.1066 12.8309 50.625 15.9375 50.625Z" stroke="#0066FF" stroke-width="2" stroke-miterlimit="10"/>
      <path d="M38.4375 45H21.5625" stroke="#0066FF" stroke-width="2" stroke-linecap="round" stroke-linejoin="round"/>
      <path d="M10.3125 45H5.625C5.12772 45 4.65081 44.8025 4.29917 44.4508C3.94754 44.0992 3.75 43.6223 3.75 43.125V16.875C3.75 16.3777 3.94754 15.9008 4.29917 15.5492C4.65081 15.1975 5.12772 15 5.625 15H41.25V40.1285" stroke="#0066FF" stroke-width="2" stroke-linecap="round" stroke-linejoin="round"/>
      <path d="M41.25 40.1285V28.125H56.25V43.125C56.25 43.6223 56.0525 44.0992 55.7008 44.4508C55.3492 44.8025 54.8723 45 54.375 45H49.6875" stroke="#0066FF" stroke-width="2" stroke-linecap="round" stroke-linejoin="round"/>
    </g>
  </svg>

  <svg viewBox="0 0 20 20" fill="none" xmlns="http://www.w3.org/2000/svg">
    <g id="prev-step" class="img">
      <path d="M6.25 10.625L2.5 6.875L6.25 3.125" stroke="#181A34" stroke-linecap="round" stroke-linejoin="round"/>
      <path d="M6.25 15.625H13.125C14.2853 15.625 15.3981 15.1641 16.2186 14.3436C17.0391 13.5231 17.5 12.4103 17.5 11.25V11.25C17.5 10.6755 17.3868 10.1066 17.167 9.57575C16.9471 9.04496 16.6249 8.56266 16.2186 8.15641C15.8123 7.75015 15.33 7.42789 14.7992 7.20803C14.2684 6.98816 13.6995 6.875 13.125 6.875H2.5" stroke="#181A34" stroke-linecap="round" stroke-linejoin="round"/>
    </g>
  </svg>

  <svg viewBox="0 0 60 60" fill="none" xmlns="http://www.w3.org/2000/svg">
    <g id="money" class="img">
      <path d="M54.375 15H5.625C4.58947 15 3.75 15.8395 3.75 16.875V43.125C3.75 44.1605 4.58947 45 5.625 45H54.375C55.4105 45 56.25 44.1605 56.25 43.125V16.875C56.25 15.8395 55.4105 15 54.375 15Z" stroke="#0066FF" stroke-width="2" stroke-linecap="round" stroke-linejoin="round"/>
      <path d="M30 37.5C34.1421 37.5 37.5 34.1421 37.5 30C37.5 25.8579 34.1421 22.5 30 22.5C25.8579 22.5 22.5 25.8579 22.5 30C22.5 34.1421 25.8579 37.5 30 37.5Z" stroke="#0066FF" stroke-width="2" stroke-linecap="round" stroke-linejoin="round"/>
      <path d="M41.25 15L56.25 28.125" stroke="#0066FF" stroke-width="2" stroke-linecap="round" stroke-linejoin="round"/>
      <path d="M41.25 45L56.25 31.875" stroke="#0066FF" stroke-width="2" stroke-linecap="round" stroke-linejoin="round"/>
      <path d="M18.75 15L3.75 28.125" stroke="#0066FF" stroke-width="2" stroke-linecap="round" stroke-linejoin="round"/>
      <path d="M18.75 45L3.75 31.875" stroke="#0066FF" stroke-width="2" stroke-linecap="round" stroke-linejoin="round"/>
    </g>
  </svg>

  <svg viewBox="0 0 60 60" fill="none" xmlns="http://www.w3.org/2000/svg">
    <g id="credit-card" class="img">
      <path d="M52.5 13.125H7.5C6.46447 13.125 5.625 13.9645 5.625 15V45C5.625 46.0355 6.46447 46.875 7.5 46.875H52.5C53.5355 46.875 54.375 46.0355 54.375 45V15C54.375 13.9645 53.5355 13.125 52.5 13.125Z" stroke="#0066FF" stroke-width="2" stroke-linecap="round" stroke-linejoin="round"/>
      <path d="M39.373 39.375H46.873" stroke="#0066FF" stroke-width="2" stroke-linecap="round" stroke-linejoin="round"/>
      <path d="M28.123 39.375H31.873" stroke="#0066FF" stroke-width="2" stroke-linecap="round" stroke-linejoin="round"/>
      <path d="M5.62305 22.6997H54.373" stroke="#0066FF" stroke-width="2" stroke-linecap="round" stroke-linejoin="round"/>
    </g>
  </svg>

  <svg viewBox="0 0 60 60" fill="none" xmlns="http://www.w3.org/2000/svg">
    <g id="receipt" class="img">
      <path d="M17.8125 24.375H42.1875" stroke="#0066FF" stroke-width="2" stroke-linecap="round" stroke-linejoin="round"/>
      <path d="M17.8125 31.875H42.1875" stroke="#0066FF" stroke-width="2" stroke-linecap="round" stroke-linejoin="round"/>
      <path d="M7.5 48.75V13.125C7.5 12.6277 7.69754 12.1508 8.04918 11.7992C8.40081 11.4475 8.87772 11.25 9.375 11.25H50.625C51.1223 11.25 51.5992 11.4475 51.9508 11.7992C52.3025 12.1508 52.5 12.6277 52.5 13.125V48.75L45 45L37.5 48.75L30 45L22.5 48.75L15 45L7.5 48.75Z" stroke="#0066FF" stroke-width="2" stroke-linecap="round" stroke-linejoin="round"/>
    </g>
  </svg>




























</svg>